<svg width="180" height="180" viewBox="0 0 180 180" fill="none" xmlns="http://www.w3.org/2000/svg">
<rect width="180" height="180" rx="32" fill="#F5A400"/>
<path fill-rule="evenodd" clip-rule="evenodd" d="M118.848 38.9169C118.353 37.0709 116.911 35.6291 115.066 35.1345C112.212 34.3698 109.279 36.0633 108.514 38.9169L97.9332 78.4057C95.9658 85.7479 85.83 86.4659 82.8474 79.4743L76.3237 64.1822C75.066 61.2342 72.1703 59.3214 68.9653 59.3214H38.9375C34.5192 59.3214 30.9375 62.9031 30.9375 67.3214V87.4464C30.9375 90.553 28.4191 93.0714 25.3125 93.0714C22.2059 93.0714 19.6875 95.5898 19.6875 98.6964V116.771C19.6875 119.131 18.5455 121.299 17.1386 123.194C16.5222 124.024 15.989 124.915 15.5391 125.867C14.5547 127.949 14.0625 130.142 14.0625 132.446C14.0625 136.743 15.5663 140.395 18.5738 143.404C21.5822 146.411 25.2347 147.915 29.5313 147.915C33 147.915 36.1172 146.86 38.8828 144.751C39.9657 143.925 40.9084 143.009 41.711 142.004C43.9392 139.212 46.9001 136.665 50.4719 136.665H62.301C65.4625 136.665 68.2037 138.64 70.2089 141.084C71.3756 142.506 72.7517 143.752 74.3372 144.821C77.3953 146.884 80.7413 147.915 84.375 147.915C89.4244 147.915 93.7336 146.131 97.3027 142.562C100.872 138.992 102.656 134.683 102.656 129.634C102.656 128.032 102.445 126.482 102.023 124.986C101.602 123.491 101.063 122.04 100.406 120.634L98.3867 115.9C97.6844 114.254 97.5544 112.419 98.0177 110.69L105.954 81.0729C108.072 73.1669 119.29 73.1669 121.408 81.0728L129.102 109.787C129.283 110.462 129.375 111.158 129.375 111.858V120.212C129.375 122.532 130.201 124.518 131.854 126.17C133.506 127.823 135.492 128.649 137.813 128.649H151.655C157.686 128.649 161.548 122.229 158.722 116.901L144.027 89.193C142.829 86.9336 139.782 86.4876 137.986 88.3088C135.932 90.3928 132.39 89.4574 131.633 86.6305L118.848 38.9169ZM138.085 110.711C137.904 110.036 137.813 109.339 137.813 108.64V101.228C137.813 100.665 137.93 100.149 138.164 99.6807C138.546 98.9178 139.559 99.1796 139.967 99.9284L147.61 113.939C149.151 116.766 147.106 120.212 143.886 120.212C141.966 120.212 140.285 118.922 139.789 117.068L138.085 110.711ZM34.5234 137.464C35.8828 136.12 36.5625 134.456 36.5625 132.472C36.5625 130.486 35.8913 128.814 34.5488 127.454C33.2053 126.095 31.5413 125.415 29.5566 125.415C27.5709 125.415 25.8984 126.086 24.5391 127.429C23.1797 128.772 22.5 130.436 22.5 132.421C22.5 134.407 23.1713 136.079 24.5138 137.439C25.8572 138.798 27.5213 139.478 29.5059 139.478C31.4916 139.478 33.1641 138.806 34.5234 137.464ZM91.3359 136.612C93.2578 134.701 94.2188 132.381 94.2188 129.651C94.2188 126.921 93.2634 124.595 91.3528 122.673C89.4422 120.751 87.1219 119.79 84.3919 119.79C81.6619 119.79 79.3359 120.745 77.4141 122.656C75.4922 124.567 74.5313 126.887 74.5313 129.617C74.5313 132.347 75.4866 134.673 77.3972 136.595C79.3078 138.517 81.6281 139.478 84.3581 139.478C87.0881 139.478 89.4141 138.522 91.3359 136.612ZM41.711 122.889C43.9392 125.681 46.9001 128.228 50.4719 128.228H61.55C64.1294 128.228 66.2625 126.315 67.0781 123.868C67.7089 121.976 66.4245 119.79 64.4298 119.79H56.1159C54.0495 119.79 52.0766 118.929 50.672 117.413L50.2031 116.907C48.4219 114.985 46.4297 112.899 44.2266 110.649C42.0234 108.399 40.0313 106.314 38.25 104.392L37.1179 103.17C36.1361 102.111 34.7572 101.509 33.3129 101.509C30.4477 101.509 28.125 103.832 28.125 106.697V115.571C28.125 116.348 28.7546 116.978 29.5313 116.978C33 116.978 36.1172 118.032 38.8828 120.142C39.9657 120.968 40.9084 121.883 41.711 122.889ZM54.3078 108.733C55.8176 110.316 57.9099 111.212 60.0977 111.212H75.1067C80.8366 111.212 84.7086 105.365 82.4721 100.089L70.8334 72.6363C69.5799 69.6795 66.6796 67.7589 63.468 67.7589H47.375C42.9567 67.7589 39.375 71.3406 39.375 75.7589V89.8687C39.375 91.9245 40.1664 93.9014 41.5851 95.3893L54.3078 108.733Z" fill="black" stroke="black"/>
</svg>
